<svg width="124" height="68" viewBox="0 0 124 68" fill="none" xmlns="http://www.w3.org/2000/svg">
<rect x="2" y="2" width="120" height="64" stroke="#FFFCF3" stroke-width="4"/>
<path d="M45.704 40V25.809H41.219V23.9H52.19V25.809H47.705V40H45.704ZM57.7828 40.276C56.7094 40.276 55.7818 40.0115 54.9998 39.4825C54.2178 38.9535 53.6159 38.2252 53.1943 37.2975C52.7726 36.3698 52.5618 35.308 52.5618 34.112C52.5618 32.8163 52.7803 31.7123 53.2173 30.8C53.6543 29.88 54.2638 29.1785 55.0458 28.6955C55.8278 28.2125 56.7401 27.971 57.7828 27.971C58.6644 27.971 59.4733 28.1703 60.2093 28.569C60.9453 28.96 61.5318 29.5695 61.9688 30.3975C62.4134 31.2178 62.6358 32.272 62.6358 33.56C62.6358 33.744 62.6281 33.9587 62.6128 34.204C62.6051 34.4417 62.5898 34.687 62.5668 34.94H54.6088C54.6854 35.653 54.8618 36.2778 55.1378 36.8145C55.4138 37.3512 55.7779 37.7728 56.2303 38.0795C56.6826 38.3785 57.2154 38.528 57.8288 38.528C58.3271 38.528 58.7871 38.4398 59.2088 38.2635C59.6381 38.0872 60.0368 37.815 60.4048 37.447L61.5778 38.758C61.1408 39.195 60.5964 39.5592 59.9448 39.8505C59.3008 40.1342 58.5801 40.276 57.7828 40.276ZM54.5858 33.192H60.6118C60.6118 32.525 60.5006 31.9308 60.2783 31.4095C60.0636 30.8805 59.7454 30.4665 59.3238 30.1675C58.9021 29.8685 58.3884 29.719 57.7828 29.719C56.9318 29.719 56.1996 29.995 55.5863 30.547C54.9806 31.099 54.6471 31.9807 54.5858 33.192ZM63.8965 40L67.8295 33.882L64.1955 28.247H66.4265L68.2895 31.099C68.4198 31.2907 68.5386 31.4823 68.646 31.674C68.761 31.8657 68.8645 32.0497 68.9565 32.226C69.0638 32.042 69.175 31.858 69.29 31.674C69.405 31.4823 69.5238 31.2907 69.6465 31.099L71.4865 28.247H73.7405L70.0835 33.882L74.0395 40H71.7855L69.6235 36.665C69.5008 36.4657 69.3858 36.274 69.2785 36.09C69.1711 35.906 69.0638 35.722 68.9565 35.538C68.8645 35.722 68.761 35.906 68.646 36.09C68.5386 36.274 68.4198 36.4657 68.2895 36.665L66.1275 40H63.8965ZM79.8547 40.276C79.0497 40.276 78.4325 40.0345 78.0032 39.5515C77.5815 39.0685 77.3707 38.3747 77.3707 37.47V29.995H75.4617V28.247H77.3707V24.36L79.3717 23.394V28.247H82.2697V29.995H79.3717V36.803C79.3717 37.3627 79.4675 37.7728 79.6592 38.0335C79.8585 38.2865 80.169 38.413 80.5907 38.413C81.1274 38.413 81.71 38.206 82.3387 37.792L82.1087 39.747C81.7637 39.931 81.4034 40.0652 81.0277 40.1495C80.6597 40.2338 80.2687 40.276 79.8547 40.276Z" fill="#FFFCF3"/>
</svg>
